<?xml version="1.0" encoding="utf-8"?>
<!-- Generator: Adobe Illustrator 23.0.5, SVG Export Plug-In . SVG Version: 6.00 Build 0)  -->
<svg version="1.1" id="TARJETA" xmlns="http://www.w3.org/2000/svg" xmlns:xlink="http://www.w3.org/1999/xlink" x="0px"
  y="0px" viewBox="0 0 240.94 155.91" style="enable-background:new 0 0 240.94 155.91;" xml:space="preserve">
  <style type="text/css">
    .st0 {
      fill: #DBCAAD;
    }
  </style>
  <g id="delante">
    <g id="Tipografía_1_">
      <path class="st0" d="M9.19,68.82c1.39,0.85,3.42,1.55,5.56,1.55c3.17,0,5.02-1.66,5.02-4.05c0-2.22-1.28-3.49-4.52-4.72
			c-3.92-1.38-6.34-3.38-6.34-6.73c0-3.7,3.1-6.45,7.77-6.45c2.46,0,4.24,0.56,5.31,1.16l-0.85,2.5c-0.78-0.42-2.39-1.13-4.56-1.13
			c-3.28,0-4.52,1.94-4.52,3.56c0,2.22,1.46,3.31,4.77,4.58c4.06,1.55,6.13,3.49,6.13,6.98c0,3.67-2.74,6.84-8.41,6.84
			c-2.32,0-4.85-0.67-6.13-1.52L9.19,68.82z" />
      <path class="st0" d="M30.74,50.71c0.04,1.06-0.75,1.9-2,1.9c-1.1,0-1.89-0.85-1.89-1.9c0-1.09,0.82-1.94,1.96-1.94
			C29.99,48.77,30.74,49.61,30.74,50.71z M27.25,72.56V55.5h3.14v17.06H27.25z" />
      <path class="st0" d="M35.77,60.12c0-1.76-0.04-3.21-0.14-4.62h2.74l0.14,2.75h0.11c0.96-1.62,2.57-3.14,5.42-3.14
			c2.35,0,4.13,1.41,4.88,3.42h0.07c0.53-0.95,1.21-1.69,1.92-2.22c1.03-0.78,2.17-1.2,3.81-1.2c2.28,0,5.66,1.48,5.66,7.4v10.05
			h-3.06V62.9c0-3.28-1.21-5.25-3.74-5.25c-1.78,0-3.17,1.3-3.71,2.82c-0.14,0.42-0.25,0.99-0.25,1.55v10.54h-3.06V62.34
			c0-2.71-1.21-4.69-3.6-4.69c-1.96,0-3.38,1.55-3.88,3.1c-0.18,0.46-0.25,0.99-0.25,1.51v10.29h-3.06V60.12z" />
      <path class="st0" d="M65.66,61.07c0-2.19-0.07-3.95-0.14-5.57h2.81l0.14,2.93h0.07c1.28-2.08,3.31-3.31,6.13-3.31
			c4.17,0,7.3,3.49,7.3,8.67c0,6.13-3.78,9.17-7.84,9.17c-2.28,0-4.28-0.99-5.31-2.68h-0.07v9.27h-3.1V61.07z M68.76,65.62
			c0,0.46,0.07,0.88,0.14,1.27c0.57,2.15,2.46,3.63,4.7,3.63c3.31,0,5.24-2.68,5.24-6.59c0-3.42-1.82-6.35-5.13-6.35
			c-2.14,0-4.13,1.52-4.74,3.84c-0.11,0.39-0.21,0.84-0.21,1.27V65.62z" />
      <path class="st0" d="M86.11,47.53h3.14v25.03h-3.14V47.53z" />
      <path class="st0"
        d="M96.44,64.59c0.07,4.19,2.78,5.92,5.91,5.92c2.24,0,3.6-0.39,4.77-0.88l0.53,2.22
			c-1.1,0.49-2.99,1.06-5.74,1.06c-5.31,0-8.48-3.45-8.48-8.6c0-5.15,3.06-9.2,8.09-9.2c5.63,0,7.13,4.9,7.13,8.04
			c0,0.63-0.07,1.13-0.11,1.45H96.44z M105.63,62.37c0.04-1.97-0.82-5.04-4.35-5.04c-3.17,0-4.56,2.89-4.81,5.04H105.63z" />
      <path class="st0" d="M127.94,75.2v1.76h-17.81V75.2H127.94z" />
      <path class="st0" d="M46.39,101.34c0-0.96-0.02-1.75-0.08-2.53h1.5l0.08,1.5h0.06c0.53-0.89,1.4-1.72,2.96-1.72
			c1.29,0,2.26,0.77,2.67,1.87h0.04c0.29-0.52,0.66-0.92,1.05-1.21c0.56-0.42,1.19-0.66,2.08-0.66c1.25,0,3.1,0.81,3.1,4.05v5.5
			h-1.68v-5.28c0-1.79-0.66-2.87-2.05-2.87c-0.97,0-1.73,0.71-2.03,1.54c-0.08,0.23-0.14,0.54-0.14,0.85v5.76h-1.68v-5.59
			c0-1.48-0.66-2.56-1.97-2.56c-1.07,0-1.85,0.85-2.12,1.7c-0.1,0.25-0.14,0.54-0.14,0.83v5.63h-1.68V101.34z" />
      <path class="st0"
        d="M63.69,103.79c0.04,2.29,1.52,3.24,3.23,3.24c1.23,0,1.97-0.21,2.61-0.48l0.29,1.22
			c-0.6,0.27-1.64,0.58-3.14,0.58c-2.9,0-4.64-1.89-4.64-4.71c0-2.81,1.68-5.03,4.42-5.03c3.08,0,3.9,2.68,3.9,4.4
			c0,0.35-0.04,0.62-0.06,0.79H63.69z M68.72,102.58c0.02-1.08-0.45-2.76-2.38-2.76c-1.73,0-2.49,1.58-2.63,2.76H68.72z" />
      <path class="st0" d="M72.6,101.34c0-0.96-0.02-1.75-0.08-2.53h1.52l0.1,1.54h0.04c0.47-0.89,1.56-1.75,3.12-1.75
			c1.3,0,3.33,0.77,3.33,3.97v5.57h-1.71v-5.38c0-1.5-0.57-2.76-2.18-2.76c-1.13,0-2.01,0.79-2.3,1.73
			c-0.08,0.21-0.12,0.5-0.12,0.79v5.61H72.6V101.34z" />
      <path class="st0" d="M85.5,96.14v2.68h2.45v1.29H85.5v5.03c0,1.16,0.33,1.81,1.29,1.81c0.45,0,0.78-0.06,0.99-0.12l0.08,1.27
			c-0.33,0.13-0.86,0.23-1.52,0.23c-0.8,0-1.44-0.25-1.85-0.71c-0.49-0.5-0.66-1.33-0.66-2.43v-5.09h-1.46v-1.29h1.46v-2.24
			L85.5,96.14z" />
      <path class="st0"
        d="M90.82,103.79c0.04,2.29,1.52,3.24,3.23,3.24c1.23,0,1.97-0.21,2.61-0.48l0.29,1.22
			c-0.6,0.27-1.64,0.58-3.14,0.58c-2.9,0-4.64-1.89-4.64-4.71c0-2.81,1.68-5.03,4.42-5.03c3.08,0,3.9,2.68,3.9,4.4
			c0,0.35-0.04,0.62-0.06,0.79H90.82z M95.85,102.58c0.02-1.08-0.45-2.76-2.38-2.76c-1.73,0-2.49,1.58-2.63,2.76H95.85z" />
      <path class="st0"
        d="M110.88,84.67c1.5-0.25,3.46-0.46,5.95-0.46c3.06,0,5.31,0.7,6.73,1.97c1.32,1.13,2.1,2.85,2.1,4.97
			c0,2.15-0.64,3.84-1.85,5.08c-1.64,1.73-4.31,2.61-7.34,2.61c-0.93,0-1.78-0.04-2.49-0.21v9.52h-3.1V84.67z M113.98,96.13
			c0.68,0.18,1.53,0.25,2.57,0.25c3.74,0,6.02-1.8,6.02-5.08c0-3.14-2.25-4.65-5.67-4.65c-1.35,0-2.39,0.11-2.92,0.25V96.13z" />
      <path class="st0"
        d="M130.76,100.18c0.07,4.19,2.78,5.92,5.92,5.92c2.24,0,3.6-0.39,4.77-0.88l0.53,2.22
			c-1.1,0.49-2.99,1.06-5.74,1.06c-5.31,0-8.48-3.45-8.48-8.6c0-5.15,3.06-9.2,8.09-9.2c5.63,0,7.13,4.9,7.13,8.04
			c0,0.63-0.07,1.13-0.11,1.45H130.76z M139.96,97.96c0.04-1.97-0.82-5.04-4.35-5.04c-3.17,0-4.56,2.89-4.81,5.04H139.96z" />
      <path class="st0" d="M147.05,96.41c0-2.01-0.04-3.74-0.14-5.32h2.74l0.11,3.35h0.14c0.78-2.29,2.67-3.74,4.78-3.74
			c0.36,0,0.61,0.03,0.89,0.1v2.93c-0.32-0.07-0.64-0.11-1.07-0.11c-2.21,0-3.78,1.66-4.2,3.98c-0.07,0.42-0.14,0.92-0.14,1.45v9.09
			h-3.1V96.41z" />
      <path class="st0" d="M160.26,108.15v-14.7h-2.42v-2.36h2.42v-0.81c0-2.4,0.53-4.58,2-5.96c1.18-1.13,2.74-1.59,4.2-1.59
			c1.11,0,2.07,0.25,2.67,0.49l-0.43,2.4c-0.46-0.21-1.11-0.39-2-0.39c-2.67,0-3.35,2.33-3.35,4.93v0.92h4.17v2.36h-4.17v14.7
			H160.26z" />
      <path class="st0" d="M171.81,100.18c0.07,4.19,2.78,5.92,5.91,5.92c2.24,0,3.6-0.39,4.77-0.88l0.53,2.22
			c-1.1,0.49-2.99,1.06-5.74,1.06c-5.31,0-8.48-3.45-8.48-8.6c0-5.15,3.06-9.2,8.09-9.2c5.63,0,7.13,4.9,7.13,8.04
			c0,0.63-0.07,1.13-0.11,1.45H171.81z M181,97.96c0.04-1.97-0.82-5.04-4.35-5.04c-3.17,0-4.56,2.89-4.81,5.04H181z" />
      <path class="st0" d="M200.38,107.51c-0.82,0.42-2.64,0.99-4.95,0.99c-5.2,0-8.59-3.49-8.59-8.71c0-5.25,3.63-9.06,9.26-9.06
			c1.85,0,3.49,0.46,4.35,0.88l-0.71,2.4c-0.75-0.42-1.92-0.81-3.63-0.81c-3.95,0-6.09,2.89-6.09,6.45c0,3.95,2.57,6.38,5.99,6.38
			c1.78,0,2.96-0.46,3.85-0.84L200.38,107.51z" />
      <path class="st0" d="M208.47,86.19v4.9h4.49v2.36h-4.49v9.2c0,2.12,0.61,3.31,2.35,3.31c0.82,0,1.43-0.11,1.82-0.21l0.14,2.33
			c-0.61,0.25-1.57,0.42-2.78,0.42c-1.46,0-2.64-0.46-3.39-1.3c-0.89-0.92-1.21-2.43-1.21-4.44v-9.31h-2.67v-2.36h2.67V87
			L208.47,86.19z" />
      <path class="st0" d="M232.06,99.48c0,6.31-4.42,9.06-8.59,9.06c-4.67,0-8.27-3.38-8.27-8.78c0-5.71,3.78-9.06,8.55-9.06
			C228.71,90.7,232.06,94.26,232.06,99.48z M218.37,99.65c0,3.74,2.17,6.56,5.24,6.56c2.99,0,5.24-2.79,5.24-6.63
			c0-2.89-1.46-6.56-5.17-6.56C219.98,93.03,218.37,96.41,218.37,99.65z" />
    </g>
  </g>
</svg>