<svg width="1006" height="196" viewBox="0 0 1006 196" fill="none" xmlns="http://www.w3.org/2000/svg">
<path d="M0.590001 0.530006C7.75 -0.199994 15.08 0.490011 22.28 0.270011C22.34 58.06 22.28 115.85 22.31 173.63C65.14 173.64 107.97 173.6 150.8 173.65C150.82 180.89 150.82 188.13 150.77 195.36C100.68 195.45 50.58 195.3 0.489995 195.44C0.349995 189.63 0.280001 183.81 0.340001 178C0.350001 123.67 0.330001 69.33 0.340001 15C0.400001 10.21 -0.0199985 5.28001 0.590001 0.530006Z" fill="#DBCAAD"/>
<path d="M157.5 92.61C164.19 91.91 171.03 92.57 177.76 92.37C177.81 108.25 177.77 124.12 177.78 140C177.82 145.3 177.46 150.76 178.13 156.02C179 163.22 184.02 169.64 190.81 172.21C195.47 174.02 201.06 173.65 206 173.67C215.68 173.5 225.37 173.81 235.05 173.59C241.96 173.45 248.45 169.98 252.03 164.02C255.13 159.01 255.16 153.71 255.22 148C255.13 129.46 255.16 110.91 255.2 92.37C262.36 92.36 269.53 92.37 276.69 92.36C276.72 111.91 276.64 131.45 276.74 151C276.72 155.01 276.6 158.89 275.68 162.81C272.44 177.02 261.3 189.05 247.37 193.37C238.24 196.39 227.62 195.17 218 195.38C209.69 195.2 201.25 195.87 192.99 194.97C177.48 193.17 163.87 181.99 158.63 167.36C156.68 162.03 157.25 155.62 157.22 150C157.22 132.67 157.3 115.33 157.16 98C157.18 96.21 157.22 94.38 157.5 92.61Z" fill="#DBCAAD"/>
<path d="M285 92.31C295.89 92.24 306.77 92.28 317.66 92.28C323.36 98.95 328.99 105.67 334.67 112.36C337.1 115.18 339.38 118.42 342.28 120.77C343.5 121.73 344.95 122.29 346.37 121.37C348.51 120 350.27 117.84 351.89 115.91C358.29 107.96 364.88 100.16 371.4 92.31C382.41 92.26 393.43 92.22 404.44 92.34C393.19 106.11 381.69 119.68 370.36 133.39C367.62 136.8 364.08 140.14 362.23 144.12C363.89 148.1 367.55 151.42 370.25 154.75C381.59 168.35 393.18 181.75 404.38 195.47C393.39 195.61 382.39 195.53 371.39 195.53C364.23 187.03 357.13 178.51 350.02 169.97C348.65 168.59 346.42 165.83 344.24 166.34C341.9 167.23 339.98 169.54 338.33 171.36C331.46 179.44 324.57 187.51 317.65 195.55C306.77 195.51 295.89 195.6 285.01 195.49C295.88 182.52 306.75 169.56 317.62 156.59C320.17 153.5 323.04 150.58 325.31 147.28C326.18 145.79 327.29 144.48 326.27 142.75C324.23 139.05 320.95 135.97 318.31 132.68C307.21 119.22 296.09 105.78 285 92.31Z" fill="#DBCAAD"/>
<path d="M451 92.35C487.39 92.38 523.81 92.37 560.2 92.36C560.25 99.52 560.24 106.68 560.21 113.84C528.14 113.82 496.07 113.84 464 113.82C458.54 113.86 452.73 113.45 447.36 114.46C440.3 115.89 434.32 121.33 432.33 128.26C431.18 132.57 431.5 137.55 431.48 142C431.56 146.65 431.23 151.42 431.73 156.04C432.56 164.91 440.38 172.51 449.2 173.39C454.08 173.89 459.09 173.61 464 173.63C496.07 173.63 528.14 173.62 560.21 173.64C560.24 180.88 560.24 188.13 560.2 195.37C527.8 195.4 495.4 195.37 463 195.39C454.94 195.38 447.35 195.93 439.52 193.49C427.26 189.75 417.17 180.37 412.62 168.38C409.65 161.03 409.76 153.77 409.82 146C409.96 137.05 409.07 128.79 412.22 120.21C417.8 104.1 433.83 92.19 451 92.35Z" fill="#DBCAAD"/>
<path d="M836.59 92.62C840.99 92.03 845.57 92.4 850 92.37C885.52 92.37 921.05 92.37 956.57 92.37C956.59 99.52 956.59 106.67 956.58 113.83C923.73 113.89 890.87 113.72 858.01 113.91C857.69 120.3 857.68 126.6 858.04 132.99C867.03 133.42 876.01 133.17 885 133.23C902.17 133.25 919.33 133.19 936.5 133.26C936.5 140.34 936.5 147.41 936.49 154.49C910.31 154.57 884.13 154.43 857.95 154.56C857.7 160.93 857.69 167.27 858.05 173.63C890.86 173.6 923.66 173.71 956.47 173.57C956.66 180.86 956.65 188.12 956.47 195.41C916.48 195.39 876.48 195.31 836.48 195.45C836.08 163.31 836.53 131.15 836.26 99C836.26 96.89 836.26 94.71 836.59 92.62Z" fill="#DBCAAD"/>
<path d="M705.56 93.47C709.97 92.87 714.56 93.24 719 93.21C738 93.21 757 93.22 776 93.2C782.69 93.21 789.91 92.85 796.39 94.59C805.33 96.94 813.51 102.64 818.71 110.3C826.25 121.48 826.54 136.99 819.49 148.47C816.26 153.68 811.57 158.19 806.25 161.23C801.57 163.91 796.69 164.94 791.53 166.23C800.77 176.32 810.89 185.56 820.34 195.46C808.68 195.63 797.03 195.51 785.38 195.53C778.38 188.56 771.5 181.48 764.55 174.45C762.24 172.1 759.65 169.91 757.62 167.31C756.12 165.57 756.39 163.15 756.26 161.01C756.28 155.08 756.41 149.16 756.35 143.23C764.57 143.19 772.78 143.23 781 143.28C786.01 143.19 790.62 143.05 794.52 139.5C800.1 134.68 800.11 125.29 794.56 120.44C790.68 116.91 785.99 116.75 781 116.64C764.52 116.77 748.04 116.66 731.55 116.72C731.48 142.99 731.56 169.26 731.51 195.53C722.78 195.55 714.05 195.55 705.32 195.54C705.28 166.02 705.32 136.51 705.3 107C705.34 102.53 704.97 97.91 705.56 93.47Z" fill="#DBCAAD"/>
<path d="M1003.36 96.62C1006.34 102.2 1004.99 107.72 1003.63 113.5C1001.86 113.44 1000.09 113.39 998.32 113.33C999.67 109.86 1002.36 104.89 1000.72 101.22C999.76 98.55 996.49 97.18 994.21 99.15C990.77 102.6 989.38 108.4 985.72 111.73C981.98 114.88 975.98 113.61 973.69 109.34C971.26 105.16 972.44 99.03 972.79 94.4C974.54 94.4 976.29 94.39 978.04 94.38C977.11 97.63 975.25 102.04 976.68 105.31C977.42 107.31 980.8 109.54 982.51 107.52C986.32 104.21 987.47 97.76 991.52 94.53C995.13 91.69 1001.06 92.49 1003.36 96.62Z" fill="#DBCAAD"/>
<path fill-rule="evenodd" clip-rule="evenodd" d="M689.8 92.36C666.53 92.37 643.27 92.37 620 92.36C618.788 92.368 617.549 92.3559 616.295 92.3436C611.308 92.2947 606.084 92.2434 601.41 93.45C587.27 97.01 575.35 108.2 571.34 122.28C569.437 128.733 569.493 134.919 569.551 141.443C569.559 142.289 569.566 143.141 569.57 144C569.592 151.49 569.587 158.981 569.582 166.473C569.576 176.106 569.569 185.74 569.62 195.37C576.84 195.4 584.06 195.4 591.28 195.36C591.31 189.562 591.306 183.769 591.303 177.974C591.301 176.043 591.3 174.112 591.3 172.18C613.324 172.146 635.348 172.156 657.373 172.165C661.048 172.167 664.724 172.169 668.4 172.17C668.408 174.363 668.407 176.555 668.405 178.746C668.4 184.31 668.395 189.87 668.56 195.43C674.45 195.388 680.347 195.381 686.239 195.374C687.42 195.373 688.6 195.372 689.78 195.37C689.835 168.393 689.822 141.41 689.809 114.426C689.806 107.071 689.802 99.7153 689.8 92.36ZM645.242 113.831C635.494 113.839 625.745 113.847 616 113.78C611.82 113.83 607.49 113.92 603.58 115.58C596.93 118.33 592 124.79 591.46 132.01C591.179 135.888 591.228 139.795 591.277 143.697C591.305 145.912 591.333 148.125 591.3 150.33C609.658 150.459 628.016 150.434 646.374 150.41C653.716 150.4 661.058 150.39 668.4 150.39C668.43 138.21 668.44 126.03 668.39 113.85C660.675 113.819 652.959 113.825 645.242 113.831Z" fill="#DBCAAD"/>
<path fill-rule="evenodd" clip-rule="evenodd" d="M1004.66 120.627C1004.57 119.161 1004.48 117.696 1004.34 116.23C993.64 120.1 983.04 124.29 972.48 128.52C972.5 130.13 972.52 131.73 972.55 133.34C977.248 135.168 981.949 136.99 986.651 138.812C992.599 141.117 998.547 143.422 1004.49 145.74L1004.49 145.633C1004.53 143.829 1004.57 142.034 1004.6 140.23C1003.35 139.781 1002.11 139.33 1000.86 138.879C999.168 138.265 997.471 137.651 995.77 137.04C995.77 135.009 995.768 132.98 995.765 130.952C995.763 128.927 995.76 126.904 995.76 124.88C998.74 123.7 1001.72 122.53 1004.71 121.36C1004.69 121.116 1004.68 120.871 1004.66 120.627ZM991.74 135.61L991.77 126.34C987.66 127.83 983.57 129.39 979.52 131.05C983.57 132.65 987.65 134.15 991.74 135.61Z" fill="#DBCAAD"/>
<path fill-rule="evenodd" clip-rule="evenodd" d="M992.796 160.819C992.627 157.316 992.441 153.464 990.13 150.88C986.09 145.91 976.18 146.08 973.58 152.46C972.263 156.009 972.367 160.199 972.465 164.168C972.496 165.445 972.527 166.698 972.51 167.9C983.19 168.47 993.92 168.3 1004.61 168.03C1004.59 166.47 1004.58 164.92 1004.57 163.36L1004.51 163.36C1000.66 163.35 996.802 163.34 992.95 163.32C992.879 162.524 992.838 161.682 992.796 160.819ZM988.768 161.026C988.516 158.38 988.228 155.371 986.17 153.86C983.46 151.54 979.08 152.17 977.44 155.42C976.788 157.264 976.592 159.305 976.4 161.299C976.333 161.999 976.266 162.692 976.18 163.37C980.47 163.35 984.75 163.31 989.03 163.24C988.915 162.566 988.843 161.812 988.768 161.026Z" fill="#DBCAAD"/>
<path d="M1003.82 179.18C1005.67 183.44 1005.66 190.24 1003.55 194.4C1001.84 194.97 1000.07 195.36 998.34 195.83C999.47 192.4 1001.2 188.62 1001.24 184.97C1000.98 181.96 997.58 177.77 994.54 180.6C990.49 184.01 989.16 191.63 984.39 194.31C979.79 196.77 974.36 194 972.89 189.21C971.87 185.25 971.7 180.58 973.09 176.69C974.71 176.29 976.39 176.06 978.05 175.8C977.18 179.17 975.18 183.86 976.76 187.19C977.79 189.62 980.84 190.84 982.95 188.95C986.21 185.55 987.62 179.48 991.41 176.38C995.32 173.22 1001.81 174.38 1003.82 179.18Z" fill="#DBCAAD"/>
</svg>
