<svg width="225" height="62" viewBox="0 0 225 62" fill="none" xmlns="http://www.w3.org/2000/svg">
<path d="M1.19004 21.82C2.58004 22.67 4.61004 23.37 6.75004 23.37C9.92004 23.37 11.77 21.71 11.77 19.32C11.77 17.1 10.49 15.83 7.25004 14.6C3.33004 13.22 0.910044 11.22 0.910044 7.86998C0.910044 4.16998 4.01004 1.41998 8.68004 1.41998C11.14 1.41998 12.92 1.97999 13.99 2.57999L13.14 5.07999C12.36 4.65999 10.75 3.94999 8.58004 3.94999C5.30004 3.94999 4.06004 5.88998 4.06004 7.50998C4.06004 9.72998 5.52004 10.82 8.83004 12.09C12.89 13.64 14.96 15.58 14.96 19.07C14.96 22.74 12.22 25.91 6.55004 25.91C4.23004 25.91 1.70004 25.24 0.420044 24.39L1.19004 21.82Z" fill="#DBCAAD"/>
<path d="M22.7401 3.70999C22.7801 4.76999 21.9901 5.60999 20.7401 5.60999C19.6401 5.60999 18.8501 4.75999 18.8501 3.70999C18.8501 2.61999 19.6701 1.76999 20.8101 1.76999C21.9901 1.76999 22.7401 2.60999 22.7401 3.70999ZM19.2501 25.56V8.49999H22.3901V25.56H19.2501Z" fill="#DBCAAD"/>
<path d="M27.77 13.12C27.77 11.36 27.73 9.90998 27.63 8.49998H30.37L30.51 11.25H30.62C31.58 9.62998 33.19 8.10999 36.04 8.10999C38.39 8.10999 40.17 9.51998 40.92 11.53H40.99C41.52 10.58 42.2 9.83999 42.91 9.30999C43.94 8.52999 45.08 8.10999 46.72 8.10999C49 8.10999 52.38 9.58998 52.38 15.51V25.56H49.32V15.9C49.32 12.62 48.11 10.65 45.58 10.65C43.8 10.65 42.41 11.95 41.87 13.47C41.73 13.89 41.62 14.46 41.62 15.02V25.56H38.56V15.34C38.56 12.63 37.35 10.65 34.96 10.65C33 10.65 31.58 12.2 31.08 13.75C30.9 14.21 30.83 14.74 30.83 15.26V25.55H27.77V13.12Z" fill="#DBCAAD"/>
<path d="M57.66 14.07C57.66 11.88 57.59 10.12 57.52 8.5H60.33L60.47 11.43H60.54C61.82 9.35 63.85 8.12 66.67 8.12C70.84 8.12 73.97 11.61 73.97 16.79C73.97 22.92 70.19 25.96 66.13 25.96C63.85 25.96 61.85 24.97 60.82 23.28H60.75V32.55H57.65V14.07H57.66ZM60.76 18.62C60.76 19.08 60.83 19.5 60.9 19.89C61.47 22.04 63.36 23.52 65.6 23.52C68.91 23.52 70.84 20.84 70.84 16.93C70.84 13.51 69.02 10.58 65.71 10.58C63.57 10.58 61.58 12.1 60.97 14.42C60.86 14.81 60.76 15.26 60.76 15.69V18.62Z" fill="#DBCAAD"/>
<path d="M78.1101 0.529999H81.2501V25.56H78.1101V0.529999Z" fill="#DBCAAD"/>
<path d="M88.4401 17.59C88.5101 21.78 91.2201 23.51 94.3501 23.51C96.5901 23.51 97.9501 23.12 99.1201 22.63L99.6501 24.85C98.5501 25.34 96.6601 25.91 93.9101 25.91C88.6001 25.91 85.4301 22.46 85.4301 17.31C85.4301 12.16 88.49 8.10999 93.5201 8.10999C99.1501 8.10999 100.65 13.01 100.65 16.15C100.65 16.78 100.58 17.28 100.54 17.6H88.4401V17.59ZM97.6301 15.37C97.6701 13.4 96.8101 10.33 93.2801 10.33C90.1101 10.33 88.7201 13.22 88.4701 15.37H97.6301Z" fill="#DBCAAD"/>
<path d="M119.94 28.2V29.96H102.13V28.2H119.94Z" fill="#DBCAAD"/>
<path d="M38.3901 54.34C38.3901 53.38 38.3701 52.59 38.3101 51.81H39.8101L39.8901 53.31H39.9501C40.4801 52.42 41.3501 51.59 42.9101 51.59C44.2001 51.59 45.1701 52.36 45.5801 53.46H45.6201C45.9101 52.94 46.2801 52.54 46.6701 52.25C47.2301 51.83 47.8601 51.59 48.7501 51.59C50.0001 51.59 51.8501 52.4 51.8501 55.64V61.14H50.1701V55.86C50.1701 54.07 49.5101 52.99 48.1201 52.99C47.1501 52.99 46.3901 53.7 46.0901 54.53C46.0101 54.76 45.9501 55.07 45.9501 55.38V61.14H44.2701V55.55C44.2701 54.07 43.6101 52.99 42.3001 52.99C41.2301 52.99 40.4501 53.84 40.1801 54.69C40.0801 54.94 40.0401 55.23 40.0401 55.52V61.15H38.3601V54.34H38.3901Z" fill="#DBCAAD"/>
<path d="M55.69 56.79C55.73 59.08 57.21 60.03 58.92 60.03C60.15 60.03 60.89 59.82 61.53 59.55L61.82 60.77C61.22 61.04 60.18 61.35 58.68 61.35C55.78 61.35 54.04 59.46 54.04 56.64C54.04 53.83 55.72 51.61 58.46 51.61C61.54 51.61 62.36 54.29 62.36 56.01C62.36 56.36 62.32 56.63 62.3 56.8H55.69V56.79ZM60.72 55.58C60.74 54.5 60.27 52.82 58.34 52.82C56.61 52.82 55.85 54.4 55.71 55.58H60.72Z" fill="#DBCAAD"/>
<path d="M64.6 54.34C64.6 53.38 64.58 52.59 64.52 51.81H66.04L66.14 53.35H66.18C66.65 52.46 67.74 51.6 69.3 51.6C70.6 51.6 72.63 52.37 72.63 55.57V61.14H70.92V55.76C70.92 54.26 70.35 53 68.74 53C67.61 53 66.73 53.79 66.44 54.73C66.36 54.94 66.32 55.23 66.32 55.52V61.13H64.6V54.34Z" fill="#DBCAAD"/>
<path d="M77.5 49.14V51.82H79.95V53.11H77.5V58.14C77.5 59.3 77.83 59.95 78.79 59.95C79.24 59.95 79.57 59.89 79.78 59.83L79.86 61.1C79.53 61.23 79 61.33 78.34 61.33C77.54 61.33 76.9 61.08 76.49 60.62C76 60.12 75.83 59.29 75.83 58.19V53.1H74.37V51.81H75.83V49.57L77.5 49.14Z" fill="#DBCAAD"/>
<path d="M82.82 56.79C82.86 59.08 84.34 60.03 86.05 60.03C87.28 60.03 88.02 59.82 88.66 59.55L88.95 60.77C88.35 61.04 87.31 61.35 85.81 61.35C82.91 61.35 81.17 59.46 81.17 56.64C81.17 53.83 82.85 51.61 85.59 51.61C88.67 51.61 89.49 54.29 89.49 56.01C89.49 56.36 89.45 56.63 89.43 56.8H82.82V56.79ZM87.85 55.58C87.87 54.5 87.4 52.82 85.47 52.82C83.74 52.82 82.98 54.4 82.84 55.58H87.85Z" fill="#DBCAAD"/>
<path d="M102.88 37.67C104.38 37.42 106.34 37.21 108.83 37.21C111.89 37.21 114.14 37.91 115.56 39.18C116.88 40.31 117.66 42.03 117.66 44.15C117.66 46.3 117.02 47.99 115.81 49.23C114.17 50.96 111.5 51.84 108.47 51.84C107.54 51.84 106.69 51.8 105.98 51.63V61.15H102.88V37.67ZM105.98 49.13C106.66 49.31 107.51 49.38 108.55 49.38C112.29 49.38 114.57 47.58 114.57 44.3C114.57 41.16 112.32 39.65 108.9 39.65C107.55 39.65 106.51 39.76 105.98 39.9V49.13Z" fill="#DBCAAD"/>
<path d="M122.76 53.18C122.83 57.37 125.54 59.1 128.68 59.1C130.92 59.1 132.28 58.71 133.45 58.22L133.98 60.44C132.88 60.93 130.99 61.5 128.24 61.5C122.93 61.5 119.76 58.05 119.76 52.9C119.76 47.75 122.82 43.7 127.85 43.7C133.48 43.7 134.98 48.6 134.98 51.74C134.98 52.37 134.91 52.87 134.87 53.19H122.76V53.18ZM131.96 50.96C132 48.99 131.14 45.92 127.61 45.92C124.44 45.92 123.05 48.81 122.8 50.96H131.96Z" fill="#DBCAAD"/>
<path d="M139.05 49.41C139.05 47.4 139.01 45.67 138.91 44.09H141.65L141.76 47.44H141.9C142.68 45.15 144.57 43.7 146.68 43.7C147.04 43.7 147.29 43.73 147.57 43.8V46.73C147.25 46.66 146.93 46.62 146.5 46.62C144.29 46.62 142.72 48.28 142.3 50.6C142.23 51.02 142.16 51.52 142.16 52.05V61.14H139.06V49.41H139.05Z" fill="#DBCAAD"/>
<path d="M152.26 61.15V46.45H149.84V44.09H152.26V43.28C152.26 40.88 152.79 38.7 154.26 37.32C155.44 36.19 157 35.73 158.46 35.73C159.57 35.73 160.53 35.98 161.13 36.22L160.7 38.62C160.24 38.41 159.59 38.23 158.7 38.23C156.03 38.23 155.35 40.56 155.35 43.16V44.08H159.52V46.44H155.35V61.14H152.26V61.15Z" fill="#DBCAAD"/>
<path d="M163.81 53.18C163.88 57.37 166.59 59.1 169.72 59.1C171.96 59.1 173.32 58.71 174.49 58.22L175.02 60.44C173.92 60.93 172.03 61.5 169.28 61.5C163.97 61.5 160.8 58.05 160.8 52.9C160.8 47.75 163.86 43.7 168.89 43.7C174.52 43.7 176.02 48.6 176.02 51.74C176.02 52.37 175.95 52.87 175.91 53.19H163.81V53.18ZM173 50.96C173.04 48.99 172.18 45.92 168.65 45.92C165.48 45.92 164.09 48.81 163.84 50.96H173Z" fill="#DBCAAD"/>
<path d="M192.38 60.51C191.56 60.93 189.74 61.5 187.43 61.5C182.23 61.5 178.84 58.01 178.84 52.79C178.84 47.54 182.47 43.73 188.1 43.73C189.95 43.73 191.59 44.19 192.45 44.61L191.74 47.01C190.99 46.59 189.82 46.2 188.11 46.2C184.16 46.2 182.02 49.09 182.02 52.65C182.02 56.6 184.59 59.03 188.01 59.03C189.79 59.03 190.97 58.57 191.86 58.19L192.38 60.51Z" fill="#DBCAAD"/>
<path d="M200.47 39.19V44.09H204.96V46.45H200.47V55.65C200.47 57.77 201.08 58.96 202.82 58.96C203.64 58.96 204.25 58.85 204.64 58.75L204.78 61.08C204.17 61.33 203.21 61.5 202 61.5C200.54 61.5 199.36 61.04 198.61 60.2C197.72 59.28 197.4 57.77 197.4 55.76V46.45H194.73V44.09H197.4V40L200.47 39.19Z" fill="#DBCAAD"/>
<path d="M224.06 52.48C224.06 58.79 219.64 61.54 215.47 61.54C210.8 61.54 207.2 58.16 207.2 52.76C207.2 47.05 210.98 43.7 215.75 43.7C220.71 43.7 224.06 47.26 224.06 52.48ZM210.37 52.65C210.37 56.39 212.54 59.21 215.61 59.21C218.6 59.21 220.85 56.42 220.85 52.58C220.85 49.69 219.39 46.02 215.68 46.02C211.98 46.03 210.37 49.41 210.37 52.65Z" fill="#DBCAAD"/>
</svg>
