<svg width="1098" height="1098" viewBox="0 0 1098 1098" fill="none" xmlns="http://www.w3.org/2000/svg">
<path d="M275.546 75.3632C537.128 -75.6615 871.612 13.9633 1022.64 275.546C1173.66 537.128 1084.04 871.612 822.454 1022.64C560.872 1173.66 226.388 1084.04 75.3632 822.454C-75.6615 560.872 13.9633 226.388 275.546 75.3632Z" stroke="#CCCCCC" stroke-width="3"/>
<path d="M304.658 838.552C333.838 785.748 346.503 752.654 365.778 690.494C379.554 628.411 341.347 611.642 316.947 605.916C250.869 590.408 216.835 585.041 162.394 582.377C138.153 579.456 94.7311 621.442 115.572 677.072C142.324 749.849 163.311 785.855 210.793 841.999C248.549 887.862 295.067 861.005 304.658 838.552Z" stroke="#CCCCCC" stroke-width="3"/>
<path d="M683.079 888.022C651.94 836.35 629.611 808.834 585.417 761.061C538.539 718.09 504.914 742.793 487.755 761.061C441.285 810.533 419.62 837.324 390.092 883.139C375.443 902.672 390.092 961.269 448.69 971.035C525.093 984.256 566.768 984.083 639.131 971.035C697.728 961.269 697.728 907.555 683.079 888.022Z" stroke="#CCCCCC" stroke-width="3"/>
<path d="M917.655 581.555C857.335 582.686 822.342 588.265 758.872 602.652C698.219 621.764 702.8 663.236 710.041 687.23C729.65 752.209 742.019 784.367 766.933 832.847C776.524 855.3 834.595 871.912 872.351 826.048C922.003 766.492 942.691 730.313 967.572 661.121C988.413 605.491 941.895 578.634 917.655 581.555Z" stroke="#CCCCCC" stroke-width="3"/>
<path d="M770.235 238.957C741.055 291.761 728.39 324.856 709.115 387.016C695.339 449.099 733.546 465.867 757.946 471.594C824.024 487.102 858.058 492.469 912.499 495.133C936.74 498.053 980.162 456.068 959.321 400.438C932.569 327.661 911.582 291.655 864.1 235.511C826.344 189.647 779.826 216.504 770.235 238.957Z" stroke="#CCCCCC" stroke-width="3"/>
<path d="M391.814 189.487C422.953 241.16 445.282 268.675 489.476 316.448C536.354 359.42 569.979 334.716 587.138 316.448C633.608 266.977 655.273 240.186 684.8 194.37C699.45 174.838 684.801 116.241 626.203 106.474C549.8 93.2536 508.125 93.4263 435.762 106.474C377.164 116.241 377.164 169.955 391.814 189.487Z" stroke="#CCCCCC" stroke-width="3"/>
<path d="M160.813 482.614C221.132 481.483 256.126 475.904 319.595 461.517C380.249 442.405 375.667 400.933 368.426 376.939C348.817 311.959 336.448 279.802 311.535 231.322C301.944 208.869 243.873 192.257 206.116 238.121C156.465 297.677 135.777 333.856 110.895 403.048C90.0546 458.678 136.572 485.535 160.813 482.614Z" stroke="#CCCCCC" stroke-width="3"/>
</svg>
