<svg width="418" height="82" viewBox="0 0 418 82" fill="none" xmlns="http://www.w3.org/2000/svg">
<path d="M0.953125 80V-2.38419e-06H17.8672V66.0547H52.1641V80H0.953125ZM101.529 54.4531V20H118.17V80H102.193V69.1016H101.568C100.214 72.6172 97.9616 75.4427 94.8105 77.5781C91.6855 79.7135 87.8704 80.7813 83.3652 80.7813C79.3548 80.7813 75.8262 79.8698 72.7793 78.0469C69.7324 76.224 67.3496 73.6328 65.6309 70.2734C63.9382 66.9141 63.0788 62.8906 63.0527 58.2031V20H79.6934V55.2344C79.7194 58.776 80.6699 61.5755 82.5449 63.6328C84.4199 65.6901 86.9329 66.7187 90.084 66.7187C92.0892 66.7187 93.9642 66.263 95.709 65.3516C97.4538 64.4141 98.86 63.0339 99.9277 61.2109C101.021 59.388 101.555 57.1354 101.529 54.4531ZM145.387 20L156.402 40.9766L167.691 20H184.762L167.379 50L185.23 80H168.238L156.402 59.2578L144.762 80H127.574L145.387 50L128.199 20H145.387ZM219.605 81.1719C213.46 81.1719 208.173 79.8698 203.746 77.2656C199.345 74.6354 195.96 70.9896 193.59 66.3281C191.246 61.6667 190.074 56.3021 190.074 50.2344C190.074 44.0885 191.259 38.6979 193.629 34.0625C196.025 29.401 199.423 25.7682 203.824 23.1641C208.225 20.5339 213.46 19.2188 219.527 19.2188C224.762 19.2188 229.345 20.1693 233.277 22.0703C237.21 23.9714 240.322 26.6406 242.613 30.0781C244.905 33.5156 246.168 37.5521 246.402 42.1875H230.699C230.257 39.1927 229.085 36.7839 227.184 34.9609C225.309 33.112 222.848 32.1875 219.801 32.1875C217.223 32.1875 214.97 32.8906 213.043 34.2969C211.142 35.6771 209.658 37.6953 208.59 40.3516C207.522 43.0078 206.988 46.224 206.988 50C206.988 53.8281 207.509 57.0833 208.551 59.7656C209.618 62.4479 211.116 64.4922 213.043 65.8984C214.97 67.3047 217.223 68.0078 219.801 68.0078C221.702 68.0078 223.408 67.6172 224.918 66.8359C226.454 66.0547 227.717 64.9219 228.707 63.4375C229.723 61.9271 230.387 60.1172 230.699 58.0078H246.402C246.142 62.5911 244.892 66.6276 242.652 70.1172C240.439 73.5807 237.379 76.2891 233.473 78.2422C229.566 80.1953 224.944 81.1719 219.605 81.1719ZM274.166 81.1328C270.338 81.1328 266.926 80.4688 263.932 79.1406C260.937 77.7865 258.567 75.7943 256.822 73.1641C255.104 70.5078 254.244 67.2005 254.244 63.2422C254.244 59.9089 254.856 57.1094 256.08 54.8437C257.304 52.5781 258.971 50.7552 261.08 49.375C263.189 47.9948 265.585 46.9531 268.268 46.25C270.976 45.5469 273.814 45.0521 276.783 44.7656C280.273 44.401 283.085 44.0625 285.221 43.75C287.356 43.4115 288.906 42.9167 289.869 42.2656C290.833 41.6146 291.314 40.651 291.314 39.375V39.1406C291.314 36.6667 290.533 34.7526 288.971 33.3984C287.434 32.0443 285.247 31.3672 282.408 31.3672C279.413 31.3672 277.031 32.0312 275.26 33.3594C273.489 34.6615 272.317 36.3021 271.744 38.2812L256.354 37.0312C257.135 33.3854 258.671 30.2344 260.963 27.5781C263.255 24.8958 266.21 22.8385 269.83 21.4062C273.476 19.9479 277.695 19.2188 282.486 19.2188C285.82 19.2188 289.01 19.6094 292.057 20.3906C295.13 21.1719 297.851 22.3828 300.221 24.0234C302.617 25.6641 304.505 27.7734 305.885 30.3516C307.265 32.9036 307.955 35.9635 307.955 39.5312V80H292.174V71.6797H291.705C290.742 73.5547 289.452 75.2083 287.838 76.6406C286.223 78.0469 284.283 79.1536 282.018 79.9609C279.752 80.7422 277.135 81.1328 274.166 81.1328ZM278.932 69.6484C281.38 69.6484 283.541 69.1667 285.416 68.2031C287.291 67.2135 288.762 65.8854 289.83 64.2188C290.898 62.5521 291.432 60.6641 291.432 58.5547V52.1875C290.911 52.526 290.195 52.8385 289.283 53.125C288.398 53.3854 287.395 53.6328 286.275 53.8672C285.156 54.0755 284.036 54.2708 282.916 54.4531C281.796 54.6094 280.781 54.7526 279.869 54.8828C277.916 55.1693 276.21 55.625 274.752 56.25C273.294 56.875 272.161 57.7214 271.354 58.7891C270.546 59.8307 270.143 61.1328 270.143 62.6953C270.143 64.9609 270.963 66.6927 272.604 67.8906C274.27 69.0625 276.38 69.6484 278.932 69.6484ZM320.865 80V20H336.998V30.4687H337.623C338.717 26.7448 340.553 23.9323 343.131 22.0313C345.709 20.1042 348.678 19.1406 352.037 19.1406C352.87 19.1406 353.769 19.1927 354.732 19.2969C355.696 19.401 356.542 19.5443 357.271 19.7266V34.4922C356.49 34.2578 355.41 34.0495 354.029 33.8672C352.649 33.6849 351.386 33.5938 350.24 33.5938C347.792 33.5938 345.605 34.1276 343.678 35.1953C341.777 36.237 340.266 37.6953 339.146 39.5703C338.053 41.4453 337.506 43.6068 337.506 46.0547V80H320.865ZM390.426 81.1719C384.254 81.1719 378.941 79.9219 374.488 77.4219C370.061 74.8958 366.65 71.3281 364.254 66.7187C361.858 62.0833 360.66 56.6016 360.66 50.2734C360.66 44.1016 361.858 38.6849 364.254 34.0234C366.65 29.362 370.022 25.7292 374.371 23.125C378.746 20.5208 383.876 19.2188 389.762 19.2188C393.72 19.2188 397.405 19.8568 400.816 21.1328C404.254 22.3828 407.249 24.2708 409.801 26.7969C412.379 29.3229 414.384 32.5 415.816 36.3281C417.249 40.1302 417.965 44.5833 417.965 49.6875V54.2578H367.301V43.9453H402.301C402.301 41.5495 401.78 39.4271 400.738 37.5781C399.697 35.7292 398.251 34.2839 396.402 33.2422C394.579 32.1745 392.457 31.6406 390.035 31.6406C387.509 31.6406 385.27 32.2266 383.316 33.3984C381.389 34.5443 379.879 36.0937 378.785 38.0469C377.691 39.974 377.132 42.1224 377.105 44.4922V54.2969C377.105 57.2656 377.652 59.8307 378.746 61.9922C379.866 64.1536 381.441 65.8203 383.473 66.9922C385.504 68.1641 387.913 68.75 390.699 68.75C392.548 68.75 394.241 68.4896 395.777 67.9688C397.314 67.4479 398.629 66.6667 399.723 65.625C400.816 64.5833 401.65 63.3073 402.223 61.7969L417.613 62.8125C416.832 66.5104 415.23 69.7396 412.809 72.5C410.413 75.2344 407.314 77.3698 403.512 78.9063C399.736 80.4167 395.374 81.1719 390.426 81.1719Z" fill="#FEFEFE"/>
</svg>
