<svg width="79" height="83" viewBox="0 0 79 83" fill="none" xmlns="http://www.w3.org/2000/svg">
<path d="M30 72H50" stroke="#DBCAAD" stroke-width="2" stroke-linecap="round" stroke-linejoin="round"/>
<path d="M32 82H48" stroke="#DBCAAD" stroke-width="2" stroke-linecap="round" stroke-linejoin="round"/>
<path d="M24.2867 51.5356C21.3519 49.2429 18.9748 46.315 17.3339 42.9719C15.6931 39.6287 14.8311 35.9571 14.8129 32.233C14.7388 18.8524 25.5273 7.71525 38.9048 7.40666C44.0892 7.28108 49.1815 8.79131 53.4592 11.7231C57.7369 14.6548 60.9827 18.8592 62.7361 23.7398C64.4896 28.6203 64.6616 33.929 63.2277 38.9128C61.7938 43.8965 58.827 48.3022 54.748 51.5047C53.8483 52.2023 53.1193 53.0956 52.6161 54.1168C52.113 55.138 51.849 56.2604 51.8441 57.3988V59.2504C51.8441 59.9052 51.584 60.5331 51.1211 60.9961C50.6581 61.4591 50.0301 61.7192 49.3754 61.7192H29.6254C28.9706 61.7192 28.3427 61.4591 27.8797 60.9961C27.4167 60.5331 27.1566 59.9052 27.1566 59.2504V57.3988C27.1554 56.2677 26.8964 55.1516 26.399 54.1356C25.9017 53.1196 25.1793 52.2304 24.2867 51.5356Z" stroke="#DBCAAD" stroke-width="2" stroke-linecap="round" stroke-linejoin="round"/>
<path d="M41.9688 17.2812C48.1406 18.3212 53.2664 23.4531 54.3125 29.625" stroke="#DBCAAD" stroke-width="2" stroke-linecap="round" stroke-linejoin="round"/>
</svg>
