<svg width="1201" height="223" viewBox="0 0 1201 223" fill="none" xmlns="http://www.w3.org/2000/svg">
<path d="M0.876001 219V4.09999H40.172V188.3H135.342V219H0.876001ZM226.147 222.684C207.113 222.684 192.377 216.749 181.939 204.878C171.706 193.007 166.589 175.611 166.589 152.688V66.728H205.578V149.004C205.578 162.103 208.239 172.131 213.56 179.09C218.881 186.049 227.273 189.528 238.734 189.528C249.581 189.528 258.484 185.639 265.443 177.862C272.606 170.085 276.188 159.237 276.188 145.32V66.728H315.484V219H280.793L277.723 193.212C273.016 202.217 266.159 209.381 257.154 214.702C248.353 220.023 238.018 222.684 226.147 222.684ZM341.394 219L396.654 142.864L341.394 66.728H383.453L422.135 120.76L460.51 66.728H502.876L447.309 142.864L502.876 219H460.51L422.135 164.968L383.453 219H341.394ZM626.151 222.684C604.456 222.684 585.832 218.079 570.277 208.869C554.722 199.454 542.749 186.458 534.358 169.88C525.967 153.097 521.771 133.756 521.771 111.857C521.771 89.9577 525.967 70.6167 534.358 53.834C542.749 37.0513 554.722 23.9527 570.277 14.538C585.832 5.12333 604.456 0.415996 626.151 0.415996C651.939 0.415996 673.02 6.86299 689.393 19.757C705.971 32.4463 716.307 50.3547 720.4 73.482H677.113C674.452 61.816 668.722 52.7083 659.921 46.159C651.325 39.405 639.864 36.028 625.537 36.028C605.684 36.028 590.13 42.782 578.873 56.29C567.616 69.798 561.988 88.3203 561.988 111.857C561.988 135.394 567.616 153.916 578.873 167.424C590.13 180.727 605.684 187.379 625.537 187.379C639.864 187.379 651.325 184.309 659.921 178.169C668.722 171.824 674.452 163.126 677.113 152.074H720.4C716.307 174.178 705.971 191.472 689.393 203.957C673.02 216.442 651.939 222.684 626.151 222.684ZM806.761 222.684C793.662 222.684 782.917 220.637 774.526 216.544C766.134 212.246 759.892 206.618 755.799 199.659C751.705 192.7 749.659 185.025 749.659 176.634C749.659 162.512 755.185 151.051 766.237 142.25C777.289 133.449 793.867 129.049 815.971 129.049H854.653V125.365C854.653 114.927 851.685 107.252 845.75 102.34C839.814 97.428 832.446 94.972 823.646 94.972C815.664 94.972 808.705 96.9163 802.77 100.805C796.834 104.489 793.15 110.015 791.718 117.383H753.343C754.366 106.331 758.05 96.7117 764.395 88.525C770.944 80.3383 779.335 74.096 789.569 69.798C799.802 65.2953 811.263 63.044 823.953 63.044C845.647 63.044 862.737 68.4677 875.222 79.315C887.706 90.1623 893.949 105.512 893.949 125.365V219H860.486L856.802 194.44C852.299 202.627 845.954 209.381 837.768 214.702C829.786 220.023 819.45 222.684 806.761 222.684ZM815.664 191.984C826.92 191.984 835.619 188.3 841.759 180.932C848.103 173.564 852.094 164.456 853.732 153.609H820.269C809.831 153.609 802.36 155.553 797.858 159.442C793.355 163.126 791.104 167.731 791.104 173.257C791.104 179.192 793.355 183.797 797.858 187.072C802.36 190.347 808.296 191.984 815.664 191.984ZM931.448 219V66.728H966.446L970.13 95.279C975.656 85.455 983.126 77.6777 992.541 71.947C1002.16 66.0117 1013.42 63.044 1026.31 63.044V104.489H1015.26C1006.66 104.489 998.988 105.819 992.234 108.48C985.48 111.141 980.159 115.746 976.27 122.295C972.586 128.844 970.744 137.952 970.744 149.618V219H931.448ZM1124.46 222.684C1109.11 222.684 1095.5 219.409 1083.63 212.86C1071.76 206.311 1062.44 197.101 1055.69 185.23C1048.94 173.359 1045.56 159.647 1045.56 144.092C1045.56 128.333 1048.83 114.313 1055.38 102.033C1062.14 89.753 1071.35 80.236 1083.01 73.482C1094.88 66.5233 1108.8 63.044 1124.76 63.044C1139.71 63.044 1152.91 66.3187 1164.37 72.868C1175.83 79.4173 1184.73 88.4227 1191.08 99.884C1197.63 111.141 1200.9 123.728 1200.9 137.645C1200.9 139.896 1200.8 142.25 1200.59 144.706C1200.59 147.162 1200.49 149.72 1200.29 152.381H1084.55C1085.37 164.252 1089.46 173.564 1096.83 180.318C1104.4 187.072 1113.51 190.449 1124.15 190.449C1132.13 190.449 1138.78 188.709 1144.11 185.23C1149.63 181.546 1153.72 176.839 1156.39 171.108H1196.3C1193.43 180.727 1188.62 189.528 1181.87 197.51C1175.32 205.287 1167.13 211.427 1157.31 215.93C1147.69 220.433 1136.74 222.684 1124.46 222.684ZM1124.76 94.972C1115.15 94.972 1106.65 97.735 1099.28 103.261C1091.92 108.582 1087.21 116.769 1085.16 127.821H1160.99C1160.38 117.792 1156.69 109.81 1149.94 103.875C1143.18 97.9397 1134.79 94.972 1124.76 94.972Z" fill="#FEFEFE"/>
</svg>
