<svg width="79" height="79" viewBox="0 0 79 79" fill="none" xmlns="http://www.w3.org/2000/svg">
<path d="M39.5 39.5L69.125 9.875" stroke="#DBCAAD" stroke-width="2" stroke-linecap="round" stroke-linejoin="round"/>
<path d="M60.4471 18.5526C55.1998 13.3177 48.1788 10.2429 40.7731 9.93645C33.3674 9.63004 26.1164 12.1144 20.4546 16.8979C14.7928 21.6815 11.1326 28.4159 10.1981 35.7688C9.26361 43.1217 11.1229 50.5575 15.4081 56.6053C19.6934 62.653 26.0924 66.8721 33.3394 68.4279C40.5863 69.9838 48.1532 68.7629 54.5432 65.007C60.9331 61.251 65.6807 55.2336 67.8465 48.145C70.0124 41.0565 69.4389 33.4132 66.2394 26.7272" stroke="#DBCAAD" stroke-width="2" stroke-linecap="round" stroke-linejoin="round"/>
<path d="M49.9735 29.0265C47.5232 26.5791 44.2928 25.0677 40.8438 24.7549C37.3948 24.4421 33.9452 25.3477 31.0945 27.3143C28.2439 29.2808 26.1724 32.1841 25.2402 35.5194C24.3079 38.8548 24.5738 42.4113 25.9916 45.571C27.4093 48.7306 29.8894 51.2936 33.0008 52.8145C36.1121 54.3354 39.658 54.7181 43.0222 53.8959C46.3864 53.0738 49.3562 51.0989 51.4154 48.3145C53.4746 45.53 54.4931 42.112 54.2938 38.6546" stroke="#DBCAAD" stroke-width="2" stroke-linecap="round" stroke-linejoin="round"/>
</svg>
