<svg width="241" height="158" viewBox="0 0 241 158" fill="none" xmlns="http://www.w3.org/2000/svg">
<path d="M57.548 107V87.8H12.108V79.48L55.628 17.4H68.172V78.328H81.484V87.8H68.172V107H57.548ZM24.012 78.328H58.06V29.304L24.012 78.328Z" fill="white"/>
<path d="M205.548 107V87.8H160.108V79.48L203.628 17.4H216.172V78.328H229.484V87.8H216.172V107H205.548ZM172.012 78.328H206.06V29.304L172.012 78.328Z" fill="white"/>
<path d="M1.776 151V134.2H7.296C8.608 134.2 9.688 134.416 10.536 134.848C11.384 135.28 12.008 135.864 12.408 136.6C12.824 137.336 13.032 138.168 13.032 139.096C13.032 140.008 12.832 140.832 12.432 141.568C12.032 142.304 11.408 142.896 10.56 143.344C9.712 143.776 8.624 143.992 7.296 143.992H3.792V151H1.776ZM3.792 142.288H7.248C8.592 142.288 9.544 142.008 10.104 141.448C10.68 140.872 10.968 140.088 10.968 139.096C10.968 138.088 10.68 137.304 10.104 136.744C9.544 136.168 8.592 135.88 7.248 135.88H3.792V142.288ZM18.9519 151.288C17.9599 151.288 17.1359 151.12 16.4799 150.784C15.8239 150.448 15.3359 150 15.0159 149.44C14.6959 148.88 14.5359 148.272 14.5359 147.616C14.5359 146.4 14.9999 145.464 15.9279 144.808C16.8559 144.152 18.1199 143.824 19.7199 143.824H22.9359V143.68C22.9359 142.64 22.6639 141.856 22.1199 141.328C21.5759 140.784 20.8479 140.512 19.9359 140.512C19.1519 140.512 18.4719 140.712 17.8959 141.112C17.3359 141.496 16.9839 142.064 16.8399 142.816H14.7759C14.8559 141.952 15.1439 141.224 15.6399 140.632C16.1519 140.04 16.7839 139.592 17.5359 139.288C18.2879 138.968 19.0879 138.808 19.9359 138.808C21.5999 138.808 22.8479 139.256 23.6799 140.152C24.5279 141.032 24.9519 142.208 24.9519 143.68V151H23.1519L23.0319 148.864C22.6959 149.536 22.1999 150.112 21.5439 150.592C20.9039 151.056 20.0399 151.288 18.9519 151.288ZM19.2639 149.584C20.0319 149.584 20.6879 149.384 21.2319 148.984C21.7919 148.584 22.2159 148.064 22.5039 147.424C22.7919 146.784 22.9359 146.112 22.9359 145.408V145.384H19.8879C18.7039 145.384 17.8639 145.592 17.3679 146.008C16.8879 146.408 16.6479 146.912 16.6479 147.52C16.6479 148.144 16.8719 148.648 17.3199 149.032C17.7839 149.4 18.4319 149.584 19.2639 149.584ZM19.3119 138.112V136.6L24.3519 133.552V135.304L19.3119 138.112ZM32.6803 147.256C32.0083 147.256 31.3923 147.168 30.8323 146.992L29.6323 148.12C29.8083 148.248 30.0243 148.36 30.2803 148.456C30.5523 148.536 30.9363 148.616 31.4323 148.696C31.9283 148.76 32.6243 148.832 33.5203 148.912C35.1203 149.024 36.2643 149.392 36.9523 150.016C37.6403 150.64 37.9843 151.456 37.9843 152.464C37.9843 153.152 37.7923 153.808 37.4083 154.432C37.0403 155.056 36.4643 155.568 35.6803 155.968C34.9123 156.368 33.9203 156.568 32.7043 156.568C31.6323 156.568 30.6803 156.424 29.8483 156.136C29.0163 155.864 28.3683 155.44 27.9043 154.864C27.4403 154.304 27.2083 153.592 27.2083 152.728C27.2083 152.28 27.3283 151.792 27.5683 151.264C27.8083 150.752 28.2563 150.264 28.9123 149.8C28.5603 149.656 28.2563 149.504 28.0003 149.344C27.7603 149.168 27.5363 148.976 27.3283 148.768V148.216L29.3683 146.2C28.4243 145.4 27.9523 144.344 27.9523 143.032C27.9523 142.248 28.1363 141.536 28.5043 140.896C28.8723 140.256 29.4083 139.752 30.1123 139.384C30.8163 139 31.6723 138.808 32.6803 138.808C33.3683 138.808 33.9923 138.904 34.5523 139.096H38.9443V140.608L36.7123 140.704C37.1763 141.376 37.4083 142.152 37.4083 143.032C37.4083 143.816 37.2163 144.528 36.8323 145.168C36.4643 145.808 35.9283 146.32 35.2243 146.704C34.5363 147.072 33.6883 147.256 32.6803 147.256ZM32.6803 145.6C33.5283 145.6 34.2003 145.384 34.6963 144.952C35.2083 144.504 35.4643 143.864 35.4643 143.032C35.4643 142.216 35.2083 141.592 34.6963 141.16C34.2003 140.712 33.5283 140.488 32.6803 140.488C31.8163 140.488 31.1283 140.712 30.6163 141.16C30.1203 141.592 29.8723 142.216 29.8723 143.032C29.8723 143.864 30.1203 144.504 30.6163 144.952C31.1283 145.384 31.8163 145.6 32.6803 145.6ZM29.1763 152.536C29.1763 153.336 29.5123 153.928 30.1843 154.312C30.8563 154.712 31.6963 154.912 32.7043 154.912C33.6963 154.912 34.4883 154.696 35.0803 154.264C35.6883 153.832 35.9923 153.256 35.9923 152.536C35.9923 152.024 35.7843 151.576 35.3683 151.192C34.9523 150.824 34.1843 150.608 33.0643 150.544C32.1843 150.48 31.4243 150.4 30.7843 150.304C30.1283 150.656 29.6963 151.032 29.4883 151.432C29.2803 151.848 29.1763 152.216 29.1763 152.536ZM42.4425 136.456C42.0425 136.456 41.7065 136.328 41.4345 136.072C41.1785 135.8 41.0505 135.464 41.0505 135.064C41.0505 134.68 41.1785 134.36 41.4345 134.104C41.7065 133.848 42.0425 133.72 42.4425 133.72C42.8265 133.72 43.1545 133.848 43.4265 134.104C43.6985 134.36 43.8345 134.68 43.8345 135.064C43.8345 135.464 43.6985 135.8 43.4265 136.072C43.1545 136.328 42.8265 136.456 42.4425 136.456ZM41.4345 151V139.096H43.4505V151H41.4345ZM46.9607 151V139.096H48.7847L48.9047 141.232C49.2887 140.48 49.8407 139.888 50.5607 139.456C51.2807 139.024 52.0967 138.808 53.0087 138.808C54.4167 138.808 55.5367 139.24 56.3687 140.104C57.2167 140.952 57.6407 142.264 57.6407 144.04V151H55.6247V144.256C55.6247 141.776 54.6007 140.536 52.5527 140.536C51.5287 140.536 50.6727 140.912 49.9847 141.664C49.3127 142.4 48.9767 143.456 48.9767 144.832V151H46.9607ZM64.6551 151.288C63.6631 151.288 62.8391 151.12 62.1831 150.784C61.5271 150.448 61.0391 150 60.7191 149.44C60.3991 148.88 60.2391 148.272 60.2391 147.616C60.2391 146.4 60.7031 145.464 61.6311 144.808C62.5591 144.152 63.8231 143.824 65.4231 143.824H68.6391V143.68C68.6391 142.64 68.3671 141.856 67.8231 141.328C67.2791 140.784 66.5511 140.512 65.6391 140.512C64.8551 140.512 64.1751 140.712 63.5991 141.112C63.0391 141.496 62.6871 142.064 62.5431 142.816H60.4791C60.5591 141.952 60.8471 141.224 61.3431 140.632C61.8551 140.04 62.4871 139.592 63.2391 139.288C63.9911 138.968 64.7911 138.808 65.6391 138.808C67.3031 138.808 68.5511 139.256 69.3831 140.152C70.2311 141.032 70.6551 142.208 70.6551 143.68V151H68.8551L68.7351 148.864C68.3991 149.536 67.9031 150.112 67.2471 150.592C66.6071 151.056 65.7431 151.288 64.6551 151.288ZM64.9671 149.584C65.7351 149.584 66.3911 149.384 66.9351 148.984C67.4951 148.584 67.9191 148.064 68.2071 147.424C68.4951 146.784 68.6391 146.112 68.6391 145.408V145.384H65.5911C64.4071 145.384 63.5671 145.592 63.0711 146.008C62.5911 146.408 62.3511 146.912 62.3511 147.52C62.3511 148.144 62.5751 148.648 63.0231 149.032C63.4871 149.4 64.1351 149.584 64.9671 149.584ZM80.031 151V139.096H81.855L81.975 141.232C82.359 140.48 82.911 139.888 83.631 139.456C84.351 139.024 85.167 138.808 86.079 138.808C87.487 138.808 88.607 139.24 89.439 140.104C90.287 140.952 90.711 142.264 90.711 144.04V151H88.695V144.256C88.695 141.776 87.671 140.536 85.623 140.536C84.599 140.536 83.743 140.912 83.055 141.664C82.383 142.4 82.047 143.456 82.047 144.832V151H80.031ZM99.1894 151.288C98.0694 151.288 97.0614 151.032 96.1654 150.52C95.2694 150.008 94.5574 149.288 94.0294 148.36C93.5174 147.416 93.2614 146.312 93.2614 145.048C93.2614 143.784 93.5254 142.688 94.0534 141.76C94.5814 140.816 95.2934 140.088 96.1894 139.576C97.1014 139.064 98.1174 138.808 99.2374 138.808C100.357 138.808 101.365 139.064 102.261 139.576C103.157 140.088 103.861 140.816 104.373 141.76C104.901 142.688 105.165 143.784 105.165 145.048C105.165 146.312 104.901 147.416 104.373 148.36C103.845 149.288 103.125 150.008 102.213 150.52C101.317 151.032 100.309 151.288 99.1894 151.288ZM99.1894 149.56C99.8774 149.56 100.517 149.392 101.109 149.056C101.701 148.72 102.181 148.216 102.549 147.544C102.917 146.872 103.101 146.04 103.101 145.048C103.101 144.056 102.917 143.224 102.549 142.552C102.197 141.88 101.725 141.376 101.133 141.04C100.541 140.704 99.9094 140.536 99.2374 140.536C98.5494 140.536 97.9094 140.704 97.3174 141.04C96.7254 141.376 96.2454 141.88 95.8774 142.552C95.5094 143.224 95.3254 144.056 95.3254 145.048C95.3254 146.04 95.5094 146.872 95.8774 147.544C96.2454 148.216 96.7174 148.72 97.2934 149.056C97.8854 149.392 98.5174 149.56 99.1894 149.56ZM119.672 151.288C118.536 151.288 117.528 151.032 116.648 150.52C115.768 149.992 115.072 149.264 114.56 148.336C114.064 147.408 113.816 146.312 113.816 145.048C113.816 143.8 114.064 142.712 114.56 141.784C115.056 140.84 115.744 140.112 116.624 139.6C117.52 139.072 118.552 138.808 119.72 138.808C120.872 138.808 121.864 139.072 122.696 139.6C123.544 140.112 124.192 140.792 124.64 141.64C125.088 142.488 125.312 143.4 125.312 144.376C125.312 144.552 125.304 144.728 125.288 144.904C125.288 145.08 125.288 145.28 125.288 145.504H115.808C115.856 146.416 116.064 147.176 116.432 147.784C116.816 148.376 117.288 148.824 117.848 149.128C118.424 149.432 119.032 149.584 119.672 149.584C120.504 149.584 121.2 149.392 121.76 149.008C122.32 148.624 122.728 148.104 122.984 147.448H124.976C124.656 148.552 124.04 149.472 123.128 150.208C122.232 150.928 121.08 151.288 119.672 151.288ZM119.672 140.512C118.712 140.512 117.856 140.808 117.104 141.4C116.368 141.976 115.944 142.824 115.832 143.944H123.32C123.272 142.872 122.904 142.032 122.216 141.424C121.528 140.816 120.68 140.512 119.672 140.512ZM127.984 151V139.096H129.808L129.928 141.232C130.312 140.48 130.864 139.888 131.584 139.456C132.304 139.024 133.12 138.808 134.032 138.808C135.44 138.808 136.56 139.24 137.392 140.104C138.24 140.952 138.664 142.264 138.664 144.04V151H136.648V144.256C136.648 141.776 135.624 140.536 133.576 140.536C132.552 140.536 131.696 140.912 131.008 141.664C130.336 142.4 130 143.456 130 144.832V151H127.984ZM147.191 151.288C146.055 151.288 145.031 151.032 144.119 150.52C143.223 149.992 142.511 149.264 141.983 148.336C141.471 147.392 141.215 146.296 141.215 145.048C141.215 143.8 141.471 142.712 141.983 141.784C142.511 140.84 143.223 140.112 144.119 139.6C145.031 139.072 146.055 138.808 147.191 138.808C148.599 138.808 149.783 139.176 150.743 139.912C151.719 140.648 152.335 141.632 152.591 142.864H150.527C150.367 142.128 149.975 141.56 149.351 141.16C148.727 140.744 147.999 140.536 147.167 140.536C146.495 140.536 145.863 140.704 145.271 141.04C144.679 141.376 144.199 141.88 143.831 142.552C143.463 143.224 143.279 144.056 143.279 145.048C143.279 146.04 143.463 146.872 143.831 147.544C144.199 148.216 144.679 148.728 145.271 149.08C145.863 149.416 146.495 149.584 147.167 149.584C147.999 149.584 148.727 149.384 149.351 148.984C149.975 148.568 150.367 147.984 150.527 147.232H152.591C152.351 148.432 151.743 149.408 150.767 150.16C149.791 150.912 148.599 151.288 147.191 151.288ZM160.83 151.288C159.71 151.288 158.702 151.032 157.806 150.52C156.91 150.008 156.198 149.288 155.67 148.36C155.158 147.416 154.902 146.312 154.902 145.048C154.902 143.784 155.166 142.688 155.694 141.76C156.222 140.816 156.934 140.088 157.83 139.576C158.742 139.064 159.758 138.808 160.878 138.808C161.998 138.808 163.006 139.064 163.902 139.576C164.798 140.088 165.502 140.816 166.014 141.76C166.542 142.688 166.806 143.784 166.806 145.048C166.806 146.312 166.542 147.416 166.014 148.36C165.486 149.288 164.766 150.008 163.854 150.52C162.958 151.032 161.95 151.288 160.83 151.288ZM160.83 149.56C161.518 149.56 162.158 149.392 162.75 149.056C163.342 148.72 163.822 148.216 164.19 147.544C164.558 146.872 164.742 146.04 164.742 145.048C164.742 144.056 164.558 143.224 164.19 142.552C163.838 141.88 163.366 141.376 162.774 141.04C162.182 140.704 161.55 140.536 160.878 140.536C160.19 140.536 159.55 140.704 158.958 141.04C158.366 141.376 157.886 141.88 157.518 142.552C157.15 143.224 156.966 144.056 156.966 145.048C156.966 146.04 157.15 146.872 157.518 147.544C157.886 148.216 158.358 148.72 158.934 149.056C159.526 149.392 160.158 149.56 160.83 149.56ZM169.609 151V139.096H171.433L171.553 141.232C171.937 140.48 172.489 139.888 173.209 139.456C173.929 139.024 174.745 138.808 175.657 138.808C177.065 138.808 178.185 139.24 179.017 140.104C179.865 140.952 180.289 142.264 180.289 144.04V151H178.273V144.256C178.273 141.776 177.249 140.536 175.201 140.536C174.177 140.536 173.321 140.912 172.633 141.664C171.961 142.4 171.625 143.456 171.625 144.832V151H169.609ZM188.048 151C186.96 151 186.104 150.736 185.48 150.208C184.856 149.68 184.544 148.728 184.544 147.352V140.8H182.479V139.096H184.544L184.808 136.24H186.56V139.096H190.064V140.8H186.56V147.352C186.56 148.104 186.712 148.616 187.016 148.888C187.32 149.144 187.856 149.272 188.624 149.272H189.872V151H188.048ZM192.625 151V139.096H194.449L194.617 141.376C194.985 140.592 195.545 139.968 196.297 139.504C197.049 139.04 197.977 138.808 199.081 138.808V140.92H198.529C197.825 140.92 197.177 141.048 196.585 141.304C195.993 141.544 195.521 141.96 195.169 142.552C194.817 143.144 194.641 143.96 194.641 145V151H192.625ZM205.304 151.288C204.312 151.288 203.488 151.12 202.832 150.784C202.176 150.448 201.688 150 201.368 149.44C201.048 148.88 200.888 148.272 200.888 147.616C200.888 146.4 201.352 145.464 202.28 144.808C203.208 144.152 204.472 143.824 206.072 143.824H209.288V143.68C209.288 142.64 209.016 141.856 208.472 141.328C207.928 140.784 207.2 140.512 206.288 140.512C205.504 140.512 204.824 140.712 204.248 141.112C203.688 141.496 203.336 142.064 203.192 142.816H201.128C201.208 141.952 201.496 141.224 201.992 140.632C202.504 140.04 203.136 139.592 203.888 139.288C204.64 138.968 205.44 138.808 206.288 138.808C207.952 138.808 209.2 139.256 210.032 140.152C210.88 141.032 211.304 142.208 211.304 143.68V151H209.504L209.384 148.864C209.048 149.536 208.552 150.112 207.896 150.592C207.256 151.056 206.392 151.288 205.304 151.288ZM205.616 149.584C206.384 149.584 207.04 149.384 207.584 148.984C208.144 148.584 208.568 148.064 208.856 147.424C209.144 146.784 209.288 146.112 209.288 145.408V145.384H206.24C205.056 145.384 204.216 145.592 203.72 146.008C203.24 146.408 203 146.912 203 147.52C203 148.144 203.224 148.648 203.672 149.032C204.136 149.4 204.784 149.584 205.616 149.584ZM219.728 151.288C218.544 151.288 217.504 151.016 216.608 150.472C215.728 149.928 215.04 149.184 214.544 148.24C214.064 147.296 213.824 146.224 213.824 145.024C213.824 143.824 214.072 142.76 214.568 141.832C215.064 140.888 215.752 140.152 216.632 139.624C217.512 139.08 218.552 138.808 219.752 138.808C220.728 138.808 221.592 139.008 222.344 139.408C223.096 139.808 223.68 140.368 224.096 141.088V133.72H226.112V151H224.288L224.096 149.032C223.712 149.608 223.16 150.128 222.44 150.592C221.72 151.056 220.816 151.288 219.728 151.288ZM219.944 149.536C220.744 149.536 221.448 149.352 222.056 148.984C222.68 148.6 223.16 148.072 223.496 147.4C223.848 146.728 224.024 145.944 224.024 145.048C224.024 144.152 223.848 143.368 223.496 142.696C223.16 142.024 222.68 141.504 222.056 141.136C221.448 140.752 220.744 140.56 219.944 140.56C219.16 140.56 218.456 140.752 217.832 141.136C217.224 141.504 216.744 142.024 216.392 142.696C216.056 143.368 215.888 144.152 215.888 145.048C215.888 145.944 216.056 146.728 216.392 147.4C216.744 148.072 217.224 148.6 217.832 148.984C218.456 149.352 219.16 149.536 219.944 149.536ZM233.358 151.288C232.366 151.288 231.542 151.12 230.886 150.784C230.23 150.448 229.742 150 229.422 149.44C229.102 148.88 228.942 148.272 228.942 147.616C228.942 146.4 229.406 145.464 230.334 144.808C231.262 144.152 232.526 143.824 234.126 143.824H237.342V143.68C237.342 142.64 237.07 141.856 236.526 141.328C235.982 140.784 235.254 140.512 234.342 140.512C233.558 140.512 232.878 140.712 232.302 141.112C231.742 141.496 231.39 142.064 231.246 142.816H229.182C229.262 141.952 229.55 141.224 230.046 140.632C230.558 140.04 231.19 139.592 231.942 139.288C232.694 138.968 233.494 138.808 234.342 138.808C236.006 138.808 237.254 139.256 238.086 140.152C238.934 141.032 239.358 142.208 239.358 143.68V151H237.558L237.438 148.864C237.102 149.536 236.606 150.112 235.95 150.592C235.31 151.056 234.446 151.288 233.358 151.288ZM233.67 149.584C234.438 149.584 235.094 149.384 235.638 148.984C236.198 148.584 236.622 148.064 236.91 147.424C237.198 146.784 237.342 146.112 237.342 145.408V145.384H234.294C233.11 145.384 232.27 145.592 231.774 146.008C231.294 146.408 231.054 146.912 231.054 147.52C231.054 148.144 231.278 148.648 231.726 149.032C232.19 149.4 232.838 149.584 233.67 149.584Z" fill="white"/>
<circle cx="120" cy="79" r="19" fill="white"/>
</svg>
